<mxfile host="Electron" modified="2023-10-30T05:28:53.015Z" agent="Mozilla/5.0 (Windows NT 10.0; Win64; x64) AppleWebKit/537.36 (KHTML, like Gecko) draw.io/22.0.2 Chrome/114.0.5735.289 Electron/25.8.4 Safari/537.36" etag="Uy0Q6giz1FzjwvWboa0e" version="22.0.2" type="device">
  <diagram name="Page-1" id="hVKDqzUxnVdS0QiNoPyj">
    <mxGraphModel dx="1195" dy="712" grid="1" gridSize="10" guides="1" tooltips="1" connect="1" arrows="1" fold="1" page="1" pageScale="1" pageWidth="850" pageHeight="1100" math="0" shadow="0">
      <root>
        <mxCell id="0" />
        <mxCell id="1" parent="0" />
        <mxCell id="RZZJ9DfIvt2d7Bg-pTFx-17" value="Detail Car&lt;br&gt;Screen" style="shape=umlLifeline;perimeter=lifelinePerimeter;whiteSpace=wrap;html=1;container=0;dropTarget=0;collapsible=0;recursiveResize=0;outlineConnect=0;portConstraint=eastwest;newEdgeStyle={&quot;edgeStyle&quot;:&quot;elbowEdgeStyle&quot;,&quot;elbow&quot;:&quot;vertical&quot;,&quot;curved&quot;:0,&quot;rounded&quot;:0};" vertex="1" parent="1">
          <mxGeometry x="540" y="119" width="100" height="561" as="geometry" />
        </mxCell>
        <mxCell id="RZZJ9DfIvt2d7Bg-pTFx-18" value="" style="html=1;points=[];perimeter=orthogonalPerimeter;outlineConnect=0;targetShapes=umlLifeline;portConstraint=eastwest;newEdgeStyle={&quot;edgeStyle&quot;:&quot;elbowEdgeStyle&quot;,&quot;elbow&quot;:&quot;vertical&quot;,&quot;curved&quot;:0,&quot;rounded&quot;:0};" vertex="1" parent="RZZJ9DfIvt2d7Bg-pTFx-17">
          <mxGeometry x="45" y="431" width="10" height="54" as="geometry" />
        </mxCell>
        <mxCell id="RZZJ9DfIvt2d7Bg-pTFx-1" value="User" style="shape=umlLifeline;perimeter=lifelinePerimeter;whiteSpace=wrap;html=1;container=0;dropTarget=0;collapsible=0;recursiveResize=0;outlineConnect=0;portConstraint=eastwest;newEdgeStyle={&quot;edgeStyle&quot;:&quot;elbowEdgeStyle&quot;,&quot;elbow&quot;:&quot;vertical&quot;,&quot;curved&quot;:0,&quot;rounded&quot;:0};" vertex="1" parent="1">
          <mxGeometry x="120" y="120" width="100" height="560" as="geometry" />
        </mxCell>
        <mxCell id="RZZJ9DfIvt2d7Bg-pTFx-2" value="" style="html=1;points=[];perimeter=orthogonalPerimeter;outlineConnect=0;targetShapes=umlLifeline;portConstraint=eastwest;newEdgeStyle={&quot;edgeStyle&quot;:&quot;elbowEdgeStyle&quot;,&quot;elbow&quot;:&quot;vertical&quot;,&quot;curved&quot;:0,&quot;rounded&quot;:0};" vertex="1" parent="RZZJ9DfIvt2d7Bg-pTFx-1">
          <mxGeometry x="45" y="70" width="10" height="110" as="geometry" />
        </mxCell>
        <mxCell id="RZZJ9DfIvt2d7Bg-pTFx-3" value="" style="html=1;points=[];perimeter=orthogonalPerimeter;outlineConnect=0;targetShapes=umlLifeline;portConstraint=eastwest;newEdgeStyle={&quot;edgeStyle&quot;:&quot;elbowEdgeStyle&quot;,&quot;elbow&quot;:&quot;vertical&quot;,&quot;curved&quot;:0,&quot;rounded&quot;:0};" vertex="1" parent="RZZJ9DfIvt2d7Bg-pTFx-1">
          <mxGeometry x="45" y="250" width="10" height="120" as="geometry" />
        </mxCell>
        <mxCell id="RZZJ9DfIvt2d7Bg-pTFx-4" value="System" style="shape=umlLifeline;perimeter=lifelinePerimeter;whiteSpace=wrap;html=1;container=0;dropTarget=0;collapsible=0;recursiveResize=0;outlineConnect=0;portConstraint=eastwest;newEdgeStyle={&quot;edgeStyle&quot;:&quot;elbowEdgeStyle&quot;,&quot;elbow&quot;:&quot;vertical&quot;,&quot;curved&quot;:0,&quot;rounded&quot;:0};" vertex="1" parent="1">
          <mxGeometry x="710" y="119" width="100" height="561" as="geometry" />
        </mxCell>
        <mxCell id="RZZJ9DfIvt2d7Bg-pTFx-5" value="" style="html=1;points=[];perimeter=orthogonalPerimeter;outlineConnect=0;targetShapes=umlLifeline;portConstraint=eastwest;newEdgeStyle={&quot;edgeStyle&quot;:&quot;elbowEdgeStyle&quot;,&quot;elbow&quot;:&quot;vertical&quot;,&quot;curved&quot;:0,&quot;rounded&quot;:0};" vertex="1" parent="RZZJ9DfIvt2d7Bg-pTFx-4">
          <mxGeometry x="45" y="80" width="10" height="294" as="geometry" />
        </mxCell>
        <mxCell id="RZZJ9DfIvt2d7Bg-pTFx-23" value="" style="html=1;points=[];perimeter=orthogonalPerimeter;outlineConnect=0;targetShapes=umlLifeline;portConstraint=eastwest;newEdgeStyle={&quot;edgeStyle&quot;:&quot;elbowEdgeStyle&quot;,&quot;elbow&quot;:&quot;vertical&quot;,&quot;curved&quot;:0,&quot;rounded&quot;:0};" vertex="1" parent="RZZJ9DfIvt2d7Bg-pTFx-4">
          <mxGeometry x="45" y="411" width="10" height="99" as="geometry" />
        </mxCell>
        <mxCell id="RZZJ9DfIvt2d7Bg-pTFx-6" value="Home Screen" style="shape=umlLifeline;perimeter=lifelinePerimeter;whiteSpace=wrap;html=1;container=0;dropTarget=0;collapsible=0;recursiveResize=0;outlineConnect=0;portConstraint=eastwest;newEdgeStyle={&quot;edgeStyle&quot;:&quot;elbowEdgeStyle&quot;,&quot;elbow&quot;:&quot;vertical&quot;,&quot;curved&quot;:0,&quot;rounded&quot;:0};" vertex="1" parent="1">
          <mxGeometry x="375" y="120" width="100" height="560" as="geometry" />
        </mxCell>
        <mxCell id="RZZJ9DfIvt2d7Bg-pTFx-7" value="" style="html=1;points=[];perimeter=orthogonalPerimeter;outlineConnect=0;targetShapes=umlLifeline;portConstraint=eastwest;newEdgeStyle={&quot;edgeStyle&quot;:&quot;elbowEdgeStyle&quot;,&quot;elbow&quot;:&quot;vertical&quot;,&quot;curved&quot;:0,&quot;rounded&quot;:0};" vertex="1" parent="RZZJ9DfIvt2d7Bg-pTFx-6">
          <mxGeometry x="45" y="80" width="10" height="294" as="geometry" />
        </mxCell>
        <mxCell id="RZZJ9DfIvt2d7Bg-pTFx-8" style="edgeStyle=elbowEdgeStyle;rounded=0;orthogonalLoop=1;jettySize=auto;html=1;elbow=vertical;curved=0;dashed=1;" edge="1" parent="1">
          <mxGeometry relative="1" as="geometry">
            <mxPoint x="180" y="230" as="sourcePoint" />
            <mxPoint x="420" y="230" as="targetPoint" />
          </mxGeometry>
        </mxCell>
        <mxCell id="RZZJ9DfIvt2d7Bg-pTFx-9" value="Get to website by&lt;br&gt;direction link&amp;nbsp;" style="edgeLabel;html=1;align=center;verticalAlign=middle;resizable=0;points=[];" vertex="1" connectable="0" parent="RZZJ9DfIvt2d7Bg-pTFx-8">
          <mxGeometry x="-0.3143" y="-3" relative="1" as="geometry">
            <mxPoint x="16" y="-3" as="offset" />
          </mxGeometry>
        </mxCell>
        <mxCell id="RZZJ9DfIvt2d7Bg-pTFx-10" style="edgeStyle=elbowEdgeStyle;rounded=0;orthogonalLoop=1;jettySize=auto;html=1;elbow=vertical;curved=0;" edge="1" parent="1">
          <mxGeometry relative="1" as="geometry">
            <mxPoint x="430" y="280.0033333333335" as="sourcePoint" />
            <mxPoint x="645" y="280.0033333333335" as="targetPoint" />
          </mxGeometry>
        </mxCell>
        <mxCell id="RZZJ9DfIvt2d7Bg-pTFx-11" value="Request get list of data" style="edgeLabel;html=1;align=center;verticalAlign=middle;resizable=0;points=[];" vertex="1" connectable="0" parent="RZZJ9DfIvt2d7Bg-pTFx-10">
          <mxGeometry x="-0.3246" y="-3" relative="1" as="geometry">
            <mxPoint x="28" y="-3" as="offset" />
          </mxGeometry>
        </mxCell>
        <mxCell id="RZZJ9DfIvt2d7Bg-pTFx-12" style="edgeStyle=elbowEdgeStyle;rounded=0;orthogonalLoop=1;jettySize=auto;html=1;elbow=vertical;curved=0;" edge="1" parent="1" source="RZZJ9DfIvt2d7Bg-pTFx-5" target="RZZJ9DfIvt2d7Bg-pTFx-7">
          <mxGeometry relative="1" as="geometry" />
        </mxCell>
        <mxCell id="RZZJ9DfIvt2d7Bg-pTFx-13" value="Show list of all cars" style="edgeLabel;html=1;align=center;verticalAlign=middle;resizable=0;points=[];" vertex="1" connectable="0" parent="RZZJ9DfIvt2d7Bg-pTFx-12">
          <mxGeometry x="0.2326" y="1" relative="1" as="geometry">
            <mxPoint x="18" y="-1" as="offset" />
          </mxGeometry>
        </mxCell>
        <mxCell id="RZZJ9DfIvt2d7Bg-pTFx-14" style="edgeStyle=elbowEdgeStyle;rounded=0;orthogonalLoop=1;jettySize=auto;html=1;elbow=vertical;curved=0;" edge="1" parent="1" source="RZZJ9DfIvt2d7Bg-pTFx-7" target="RZZJ9DfIvt2d7Bg-pTFx-3">
          <mxGeometry relative="1" as="geometry">
            <Array as="points">
              <mxPoint x="298" y="390" />
            </Array>
          </mxGeometry>
        </mxCell>
        <mxCell id="RZZJ9DfIvt2d7Bg-pTFx-15" style="edgeStyle=elbowEdgeStyle;rounded=0;orthogonalLoop=1;jettySize=auto;html=1;elbow=vertical;curved=0;dashed=1;" edge="1" parent="1" source="RZZJ9DfIvt2d7Bg-pTFx-3">
          <mxGeometry relative="1" as="geometry">
            <mxPoint x="420" y="430" as="targetPoint" />
          </mxGeometry>
        </mxCell>
        <mxCell id="RZZJ9DfIvt2d7Bg-pTFx-16" value="Request detail a car" style="edgeLabel;html=1;align=center;verticalAlign=middle;resizable=0;points=[];" vertex="1" connectable="0" parent="RZZJ9DfIvt2d7Bg-pTFx-15">
          <mxGeometry x="-0.2866" y="1" relative="1" as="geometry">
            <mxPoint x="26" y="1" as="offset" />
          </mxGeometry>
        </mxCell>
        <mxCell id="RZZJ9DfIvt2d7Bg-pTFx-19" style="edgeStyle=elbowEdgeStyle;rounded=0;orthogonalLoop=1;jettySize=auto;html=1;elbow=vertical;curved=0;entryX=0.5;entryY=0.888;entryDx=0;entryDy=0;entryPerimeter=0;" edge="1" parent="1" target="RZZJ9DfIvt2d7Bg-pTFx-5">
          <mxGeometry relative="1" as="geometry">
            <mxPoint x="750" y="460" as="targetPoint" />
            <mxPoint x="430" y="460.3266666666667" as="sourcePoint" />
          </mxGeometry>
        </mxCell>
        <mxCell id="RZZJ9DfIvt2d7Bg-pTFx-20" value="Request list of properties car &lt;br&gt;from db" style="edgeLabel;html=1;align=center;verticalAlign=middle;resizable=0;points=[];" vertex="1" connectable="0" parent="RZZJ9DfIvt2d7Bg-pTFx-19">
          <mxGeometry x="-0.1974" y="-1" relative="1" as="geometry">
            <mxPoint x="48" as="offset" />
          </mxGeometry>
        </mxCell>
        <mxCell id="RZZJ9DfIvt2d7Bg-pTFx-24" style="edgeStyle=elbowEdgeStyle;rounded=0;orthogonalLoop=1;jettySize=auto;html=1;elbow=vertical;curved=0;entryX=0.5;entryY=0.556;entryDx=0;entryDy=0;entryPerimeter=0;" edge="1" parent="1" source="RZZJ9DfIvt2d7Bg-pTFx-23" target="RZZJ9DfIvt2d7Bg-pTFx-18">
          <mxGeometry relative="1" as="geometry">
            <mxPoint x="600" y="580" as="targetPoint" />
          </mxGeometry>
        </mxCell>
        <mxCell id="RZZJ9DfIvt2d7Bg-pTFx-25" value="Display&amp;nbsp;" style="edgeLabel;html=1;align=center;verticalAlign=middle;resizable=0;points=[];" vertex="1" connectable="0" parent="RZZJ9DfIvt2d7Bg-pTFx-24">
          <mxGeometry x="0.2446" y="-2" relative="1" as="geometry">
            <mxPoint x="32" y="2" as="offset" />
          </mxGeometry>
        </mxCell>
      </root>
    </mxGraphModel>
  </diagram>
</mxfile>
